<?xml version="1.0" encoding="UTF-8"?>
<svg xmlns="http://www.w3.org/2000/svg" version="1.1" viewBox="0 0 800 800">
  <defs>
    <style>
      .cls-1 {
        fill: #fff;
        fill-rule: evenodd;
      }
    </style>
  </defs>
  <!-- Generator: Adobe Illustrator 28.7.1, SVG Export Plug-In . SVG Version: 1.2.0 Build 142)  -->
  <g>
    <g id="Layer_1">
      <path class="cls-1" d="M700,198.6c.3,20.2-2.2,45.6-4.4,64.1-.9,7.2-2.1,13.2-3.4,18.1,28.6,52.8,41.2,116.4,41.2,185.8s-39.6,150-101.2,196.2c-61.1,45.8-143.4,70.4-232.1,70.4s-171.1-24.7-232.1-70.4c-61.6-46.2-101.2-114-101.2-196.2s12.6-133,41.2-185.8c-1.3-4.9-2.5-10.9-3.4-18.1-2.2-18.5-4.8-43.9-4.4-64.1.4-22.8,3.3-45.6,6.6-68.2,1.5-10.5,4-20.3,15.3-26.5,11.6-6.3,23.8-4,35.8-.6,40.6,11.5,78.7,27.6,114.5,47,37.7-11.3,80.3-17.1,127.7-17.1s90,5.8,127.7,17.1c35.8-19.4,73.9-35.5,114.5-47,12-3.4,24.2-5.8,35.8.6,11.3,6.2,13.8,16,15.3,26.5,3.3,22.6,6.3,45.4,6.6,68.2ZM666.7,466.7c0-56.2-12.9-133.3-83.3-133.3s-61.8,8.3-91.8,16.7c-30,8.3-59.9,16.7-91.6,16.7s-61.6-8.3-91.6-16.7c-30-8.3-60-16.7-91.8-16.7-70.2,0-83.3,77.3-83.3,133.3s27.6,107.7,74.5,142.9c47.5,35.6,115.1,57.1,192.1,57.1s144.6-21.5,192.1-57.1c47-35.2,74.5-84.1,74.5-142.9ZM333.3,483.3c0,46-22.4,83.3-50,83.3s-50-37.3-50-83.3,22.4-83.3,50-83.3,50,37.3,50,83.3ZM516.7,566.7c27.6,0,50-37.3,50-83.3s-22.4-83.3-50-83.3-50,37.3-50,83.3,22.4,83.3,50,83.3Z"/>
    </g>
  </g>
</svg>