<?xml version="1.0" standalone="no"?>
<svg viewBox="0 0 200 200" xmlns="http://www.w3.org/2000/svg">
  <path fill="#FF0066" d="M49.5,-78.7C63.1,-68.4,72.2,-52.8,79,-36.5C85.9,-20.2,90.3,-3.3,88,12.6C85.6,28.5,76.4,43.4,65.1,56.2C53.7,69.1,40.2,79.9,24.8,84.3C9.5,88.6,-7.6,86.5,-24.5,82.1C-41.4,77.8,-58,71.2,-68.8,59.3C-79.6,47.4,-84.4,30.1,-85.3,13.3C-86.1,-3.6,-82.9,-20,-76.5,-35.4C-70.1,-50.7,-60.6,-65.1,-47.3,-75.6C-34,-86.1,-17,-92.7,0.5,-93.5C18,-94.2,36,-89.1,49.5,-78.7Z" transform="translate(100 100)" />
</svg>
